<?xml version="1.0" standalone="no"?>
<!DOCTYPE svg PUBLIC "-//W3C//DTD SVG 20010904//EN"
 "http://www.w3.org/TR/2001/REC-SVG-20010904/DTD/svg10.dtd">
<svg version="1.0" xmlns="http://www.w3.org/2000/svg"
 width="1024.000000pt" height="1024.000000pt" viewBox="0 0 1024.000000 1024.000000"
 preserveAspectRatio="xMidYMid meet">
<metadata>
Created by potrace 1.11, written by Peter Selinger 2001-2013
</metadata>
<g transform="translate(0.000000,1024.000000) scale(0.100000,-0.100000)"
fill="#000000" stroke="none">
<path d="M1778 8766 c-1 -2 -34 -6 -71 -10 -169 -16 -326 -116 -432 -275 -70
-106 -88 -172 -88 -321 0 -69 2 -136 5 -150 30 -129 123 -263 238 -341 l49
-34 1 -65 c0 -36 1 -1397 3 -3026 l2 -2961 29 -37 c44 -59 64 -63 281 -62 216
1 227 4 270 77 20 34 20 53 21 3053 2 2784 3 3020 18 3028 34 19 134 108 163
145 51 64 89 144 110 228 14 60 14 195 -1 265 -52 246 -272 453 -506 475 -36
4 -70 8 -77 10 -6 2 -13 2 -15 1z"/>
<path d="M4827 8154 c-1 -1 -54 -5 -117 -8 -63 -3 -131 -9 -150 -12 -78 -12
-277 -44 -304 -49 -83 -16 -351 -90 -470 -129 -283 -94 -538 -202 -866 -365
-392 -196 -469 -252 -512 -376 -16 -47 -17 -164 -15 -1870 l2 -1820 24 -45
c13 -25 45 -66 71 -91 62 -60 130 -86 217 -84 65 2 124 28 411 179 110 58 451
209 592 263 158 59 416 146 474 158 10 3 42 11 70 19 50 15 202 50 261 60 17
3 41 8 55 10 14 3 45 8 70 11 25 3 54 7 65 9 98 19 422 28 525 15 30 -4 81
-10 112 -13 158 -14 400 -81 658 -183 62 -24 354 -167 375 -183 8 -6 52 -25
250 -111 367 -159 735 -200 1135 -129 143 26 157 29 220 46 30 8 62 16 70 18
79 19 389 126 465 160 17 8 48 21 70 30 90 37 149 65 329 154 302 150 388 210
429 300 l21 47 1 1855 c1 1912 2 1900 -38 1975 -23 47 -107 120 -157 138 -108
40 -152 29 -390 -92 -142 -72 -249 -129 -365 -193 -88 -48 -272 -138 -284
-138 -4 0 -26 -9 -49 -20 -22 -11 -47 -20 -55 -20 -7 0 -17 -4 -23 -9 -12 -11
-249 -86 -334 -105 -36 -9 -90 -18 -120 -22 -30 -3 -59 -9 -64 -12 -5 -2 -70
-6 -145 -7 -218 -5 -289 13 -591 150 -113 51 -257 114 -320 140 -63 26 -128
53 -145 60 -42 18 -267 99 -345 125 -209 69 -423 118 -590 136 -25 2 -56 7
-69 9 -59 11 -445 27 -454 19z"/>
</g>
</svg>
