<?xml version="1.0" encoding="UTF-8"?><svg id="Layer_1" xmlns="http://www.w3.org/2000/svg" xmlns:xlink="http://www.w3.org/1999/xlink" viewBox="0 0 512 512"><defs><clipPath id="clippath"><path d="M12.06,254.81c0,133.97,109.84,242.57,245.34,242.57s245.34-108.61,245.34-242.57S392.9,12.23,257.4,12.23,12.06,120.84,12.06,254.81" style="fill:none;"/></clipPath></defs><g style="clip-path:url(#clippath);"><path d="M383.88,158.29s-1.06-1.12-3.05-3.23c-1.97-2.07-5.03-5.12-9.19-8.69-4.18-3.5-9.31-7.81-15.79-11.93-6.41-4.21-13.91-8.73-22.65-12.56-4.36-1.93-8.95-3.88-13.83-5.63-2.41-.97-4.95-1.63-7.51-2.43-2.55-.82-5.18-1.47-7.86-2.14-10.69-2.68-22.28-4.67-34.39-5.14l-2.27-.12-.57-.03h-.14c-.16,0,.16-.02-.4-.01h-.27s-1.08-.01-1.08-.01c-1.45-.02-2.89-.03-4.34-.05-2.79-.09-6.1,.08-9.3,.19-3.26,.07-6.34,.4-9.51,.65-3.15,.26-6.29,.85-9.45,1.3-12.62,2.06-25.29,5.3-37.46,9.94-12.09,4.84-23.68,10.87-34.41,17.84-5.42,3.4-10.47,7.26-15.27,11.27-4.83,3.99-9.35,8.19-13.66,12.46-8.65,8.51-15.82,17.83-21.9,27.04-1.47,2.34-2.91,4.64-4.33,6.9-1.36,2.31-2.65,4.61-3.86,6.89-2.34,4.62-4.5,9.11-6.32,13.53-3.73,8.79-6.38,17.12-8.11,24.61-.49,1.85-.9,3.67-1.24,5.43-.37,1.75-.68,3.45-.97,5.07-.5,3.28-.86,6.29-1.24,8.99-.54,5.45-.73,9.72-.74,12.63-.02,2.9-.03,4.45-.03,4.45l1.38,.19s.25-1.49,.72-4.3c.4-2.82,1.28-6.9,2.42-12.09,.68-2.56,1.45-5.4,2.27-8.5,1.01-3.03,1.88-6.39,3.23-9.84,2.4-6.99,5.78-14.64,9.89-22.75,8.26-16.17,20.63-33.8,37.27-49.31,16.55-15.55,37.29-28.88,59.91-37.55,22.57-8.85,46.87-12.81,69.6-12.48,22.75,.25,43.76,4.83,60.84,11.04,8.56,3.07,16.13,6.61,22.71,9.98,1.63,.86,3.22,1.7,4.74,2.52,1.49,.87,2.93,1.7,4.31,2.51,2.8,1.56,5.21,3.26,7.46,4.65,4.41,2.96,7.8,5.36,10.05,7.14,2.28,1.74,3.48,2.66,3.48,2.66l.86-1.1Z" style="fill:#fff;"/><path d="M428.4,274.46s-.26-1.45-.74-4.16c-.44-2.71-1.31-6.7-2.58-11.72-.7-2.49-1.37-5.27-2.39-8.22-.49-1.48-.95-3.04-1.52-4.62-.59-1.58-1.2-3.21-1.83-4.9-2.64-6.7-6.04-14.12-10.51-21.79-8.86-15.36-22.07-31.77-39.46-45.64-8.64-6.98-18.38-13.18-28.79-18.43-10.4-5.28-21.56-9.48-33.06-12.39-11.49-2.87-23.29-4.59-34.95-4.93l-4.36-.09c-.74,0-1.42-.05-2.21-.03l-2.15,.07c-2.87,.12-5.71,.09-8.56,.35-2.86,.26-5.69,.52-8.51,.77-2.79,.41-5.56,.82-8.3,1.22-10.94,1.91-21.31,4.86-30.82,8.46-2.35,.96-4.74,1.77-6.98,2.81-2.25,1.03-4.46,2.04-6.63,3.04-4.24,2.22-8.39,4.26-12.15,6.63-3.86,2.2-7.35,4.64-10.68,6.92-1.68,1.13-3.19,2.4-4.72,3.55-1.5,1.19-3.03,2.25-4.38,3.45-5.53,4.62-10.08,8.95-13.68,12.67-1.76,1.89-3.33,3.58-4.7,5.04-1.29,1.54-2.4,2.84-3.29,3.9-1.77,2.13-2.72,3.26-2.72,3.26l1.11,.89s1.13-.96,3.25-2.76c1.04-.9,2.32-2.01,3.83-3.32,1.59-1.22,3.38-2.65,5.33-4.26,4-3.15,9.04-6.68,14.83-10.54,5.91-3.7,12.66-7.64,20.27-11.29,7.6-3.66,16.06-7,25.15-9.8,9.1-2.79,18.91-4.77,29.06-6.22,2.55-.27,5.12-.54,7.71-.81,2.5-.12,5.02-.24,7.55-.37,1.19-.1,2.7-.04,4.12-.04,1.42,0,2.86,.02,4.29,.03,.71,0,1.43,0,2.16-.01l1.66,.06,4.01,.14c10.71,.47,21.48,2.22,31.94,5.01,5.28,1.23,10.45,2.87,15.56,4.62,5.06,1.89,10.07,3.89,14.86,6.26l3.59,1.76,3.5,1.9c2.39,1.15,4.65,2.53,6.95,3.81,2.27,1.31,4.46,2.75,6.67,4.12,2.12,1.5,4.31,2.88,6.36,4.43,8.2,6.15,15.83,12.62,22.46,19.45,3.34,3.4,6.33,6.93,9.25,10.37,2.9,3.44,5.59,6.9,8.03,10.34,2.43,3.44,4.62,6.85,6.65,10.15,1.06,1.63,2.04,3.25,2.93,4.86,.89,1.61,1.86,3.14,2.62,4.7,.8,1.55,1.57,3.05,2.32,4.5,.71,1.48,1.39,2.9,2.04,4.27,1.39,2.73,2.42,5.32,3.44,7.65,1.87,4.7,3.44,8.4,4.29,11.08,.95,2.63,1.46,4.03,1.46,4.03l1.4-.26Z" style="fill:#fff;"/><path d="M96.76,303.49c2.78-5.25,7.73-10.66,16.69-10.66,19.47,0,25.35,12.98,25.35,39.25s-6.65,39.57-27.51,39.57c-4.33,0-9.74-.62-14.53-1.86v33.54h-15.61v-109.73h15.61v9.89Zm9.43,0c-2.63,0-6.49,.46-9.43,2.32v54.4c4.02,.62,7.26,.77,9.89,.77,13.76,0,16.23-9.27,16.23-28.9s-2.47-28.59-16.69-28.59" style="fill:#fff;"/><path d="M183.14,292.82c22.57,0,29.68,13.13,29.68,39.57s-8.04,39.25-30.6,39.25-29.52-12.83-29.52-39.25,8.03-39.57,30.44-39.57m-.46,68.16c11.43,0,14.07-9.42,14.07-28.75s-2.63-28.74-14.07-28.74-13.91,9.58-13.91,28.74,2.63,28.75,13.91,28.75" style="fill:#fff;"/><path d="M270.31,370.87v-52.39c0-9.89-3.4-14.99-14.99-14.99-3.09,0-7.57,.46-11.13,2.63v64.75h-15.61v-77.27h15.61v9.27c3.86-7.88,11.59-10.04,20.24-10.04,14.84,0,21.48,6.8,21.48,20.71v57.34h-15.61Z" style="fill:#fff;"/><path d="M343.4,303.8h-22.25v47.29c0,7.11,4.64,9.89,11.28,9.89,4.18,0,8.65-.47,12.68-3.4-.31,8.97-4.8,14.07-19.63,14.07-14.06,0-19.94-7.26-19.94-20.25v-47.6h-7.57v-10.2h7.57v-15.77l15.61-2.47v18.24h22.25v10.2Z" style="fill:#fff;"/><path d="M363.18,262.69c6.34,0,8.96,2.32,8.96,7.88,0,6.02-2.63,8.34-8.96,8.34s-8.65-2.32-8.65-8.34c0-5.57,2.47-7.88,8.65-7.88m7.73,108.18h-15.46v-77.27h15.46v77.27Z" style="fill:#fff;"/><path d="M418.35,328.52c11.43,6.8,15.3,13.29,15.3,21.48,0,11.13-9.12,21.63-29.98,21.63-6.49,0-12.06-.62-17.62-1.85l1.7-10.05c5.87,.93,9.74,1.24,13.6,1.24,11.29,0,16.38-4.63,16.38-10.04,0-6.03-4.63-10.04-14.99-16.08-11.74-6.8-15.92-12.83-15.92-20.86,0-10.97,8.35-21.17,27.97-21.17,6.03,0,11.44,.62,17.31,1.85l-1.7,10.05c-5.72-.93-9.27-1.24-13.29-1.24-9.74,0-14.22,4.32-14.22,9.73,0,6.03,5.41,9.43,15.46,15.3" style="fill:#fff;"/><path d="M123.78,273.4v-20.76c0-3.92-1.35-5.94-5.94-5.94-1.23,0-3,.18-4.41,1.04v25.65h-6.18v-30.61h6.18v3.67c1.53-3.12,4.59-3.98,8.02-3.98,5.88,0,8.51,2.7,8.51,8.21v22.72h-6.19Z" style="fill:#fff;"/><path d="M137.01,248.61c0-3.79,1.96-6.13,9.49-6.13s10.84,2.88,10.84,8.21v22.72h-6.19v-3.73c-1.47,2.94-4.35,4.04-7.47,4.04-5.27,0-8.02-3-8.02-7.78,0-6.31,5.39-10.53,15.49-11.57v-2.2c0-3.67-1.9-5.45-6.49-5.45-2.51,0-5.51,.61-7.65,1.9m14.14,19.9v-10.84c-6.37,.67-9.86,2.94-9.86,7.04,0,2.94,1.53,4.78,5.51,4.78,1.28,0,2.93-.18,4.35-.98" style="fill:#fff;"/><path d="M180.42,269.42c-1.16,2.15-3.12,4.29-6.73,4.29-7.65,0-10.04-5.15-10.04-15.55s2.7-15.67,10.96-15.67c1.65,0,3.92,.24,5.81,.73v-13.28h6.12v43.47h-6.12v-3.98Zm-3.79,.06c1.04,0,2.57-.18,3.79-.92v-21.49c-1.65-.24-3-.37-3.98-.37-5.51,0-6.43,3.67-6.43,11.45s.92,11.33,6.61,11.33" style="fill:#fff;"/><path d="M193.84,248.61c0-3.79,1.96-6.12,9.49-6.12s10.84,2.88,10.84,8.21v22.71h-6.18v-3.73c-1.47,2.93-4.35,4.04-7.47,4.04-5.27,0-8.02-3-8.02-7.78,0-6.31,5.39-10.53,15.49-11.57v-2.2c0-3.67-1.9-5.45-6.49-5.45-2.51,0-5.51,.61-7.65,1.9m14.14,19.9v-10.84c-6.37,.68-9.86,2.94-9.86,7.04,0,2.94,1.53,4.77,5.51,4.77,1.28,0,2.93-.18,4.35-.98m5.51-38.57l-8.75,9h-4.41l6.18-9h6.98Z" style="fill:#fff;"/><path d="M234.31,269.48c1.65,0,3.8-.24,5.63-1.41-.12,3.55-2.2,5.64-7.96,5.64-8.82,0-11.51-5.15-11.51-15.55s3.06-15.67,11.82-15.67c2.39,0,4.65,.24,7.23,.73l-.68,3.98c-2.14-.3-3.79-.49-5.2-.49-5.33,0-6.8,3.67-6.8,11.45s1.47,11.33,7.47,11.33" style="fill:#fff;"/><path d="M248.34,230.55c2.51,0,3.55,.92,3.55,3.12,0,2.38-1.04,3.31-3.55,3.31s-3.43-.92-3.43-3.31c0-2.21,.98-3.12,3.43-3.12m3.06,42.86h-6.12v-30.61h6.12v30.61Z" style="fill:#fff;"/><path d="M259.3,248.61c0-3.79,1.96-6.13,9.49-6.13s10.84,2.88,10.84,8.21v22.72h-6.19v-3.73c-1.47,2.94-4.35,4.04-7.47,4.04-5.27,0-8.02-3-8.02-7.78,0-6.31,5.39-10.53,15.49-11.57v-2.2c0-3.67-1.9-5.45-6.49-5.45-2.51,0-5.51,.61-7.65,1.9m14.14,19.9v-10.84c-6.37,.67-9.86,2.94-9.86,7.04,0,2.94,1.53,4.78,5.51,4.78,1.28,0,2.93-.18,4.35-.98" style="fill:#fff;"/></g></svg>