<?xml version="1.0" encoding="UTF-8"?>
<svg width="166px" height="21px" viewBox="0 0 166 21" version="1.1" xmlns="http://www.w3.org/2000/svg" xmlns:xlink="http://www.w3.org/1999/xlink">
    <!-- Generator: Sketch 60.1 (88133) - https://sketch.com -->
    <title>skdigital_farba copy</title>
    <desc>Created with Sketch.</desc>
    <g id="Symbols" stroke="none" stroke-width="1" fill="none" fill-rule="evenodd">
        <g id="footer" transform="translate(-718.000000, -433.000000)" fill="#FFFFFF" fill-rule="nonzero">
            <g id="skdigital_farba-copy" transform="translate(718.000000, 433.000000)">
                <path d="M100.38,14 L100.38,6.74 L102.6,6.74 L102.6,4.53 L109.23,4.53 L109.23,0.12 L112.1,0.12 L112.1,16.2 L102.6,16.2 L102.6,14 L100.38,14 Z M103.25,13.33 L109.25,13.33 L109.25,7.33 L103.25,7.33 L103.25,13.33 Z" id="Shape"></path>
                <polygon id="Path" points="117.6 4.53 117.6 16.2 114.73 16.2 114.73 4.53"></polygon>
                <path d="M129.09,17.74 L129.09,16.2 L122.46,16.2 L122.46,14 L120.25,14 L120.25,6.74 L122.46,6.74 L122.46,4.53 L132,4.53 L132,20.61 L122.42,20.61 L122.42,17.74 L129.14,17.74 L129.09,17.74 Z M123.09,13.35 L129.09,13.35 L129.09,7.35 L123.09,7.35 L123.09,13.35 Z" id="Shape"></path>
                <polygon id="Path" points="137.47 4.53 137.47 16.2 134.6 16.2 134.6 4.53"></polygon>
                <polygon id="Path" points="142.32 16.2 142.32 7.4 140.11 7.4 140.11 4.53 142.32 4.53 142.32 0.12 145.19 0.12 145.19 4.53 147.4 4.53 147.4 7.4 145.19 7.4 145.19 16.21 142.32 16.21"></polygon>
                <path d="M150.49,16.2 L150.49,14 L148.28,14 L148.28,11.16 L150.49,11.16 L150.49,9 L157.12,9 L157.12,7.4 L150.3,7.4 L150.3,4.53 L157.77,4.53 L157.77,6.74 L160,6.74 L160,14 L157.79,14 L157.79,16.18 L150.51,16.18 L150.49,16.2 Z M151.15,13.35 L157.15,13.35 L157.15,11.82 L151.15,11.82 L151.15,13.36 L151.15,13.35 Z" id="Shape"></path>
                <polygon id="Path" points="165.5 0.12 165.5 16.2 162.6 16.2 162.6 0.12"></polygon>
                <path d="M1.68,12.48 C2.43789209,13.1326569 3.3831641,13.5282708 4.38,13.61 C5.18,13.61 5.49,13.39 5.49,12.95 C5.49,12.51 4.49,12.11 3.37,11.67 C2.08,11.13 0.6,10.17 0.6,8.36 C0.6,6.19 2.34,4.78 5,4.78 C6.45929779,4.80451892 7.86802563,5.31870458 9,6.24 L7.34,8.49 C6.69509855,7.9778779 5.91122453,7.67129606 5.09,7.61 C4.45,7.61 4.09,7.79 4.09,8.23 C4.09,8.67 5.09,9.03 6.17,9.42 C7.5,9.91 9,10.75 9,12.74 C9,14.73 7.36,16.41 4.27,16.41 C2.71445067,16.3443299 1.219657,15.7877206 -8.8817842e-16,14.82 L1.68,12.48 Z" id="Path"></path>
                <path d="M10.22,0.7 L14,0.7 L14,12.34 C14,13.09 14.35,13.34 14.62,13.34 C14.7525824,13.3600126 14.8874176,13.3600126 15.02,13.34 L15.46,16.13 C14.8670901,16.3571228 14.2345222,16.4625508 13.6,16.44 C11.03,16.44 10.19,14.76 10.19,12.28 L10.22,0.7 Z" id="Path"></path>
                <path d="M21.06,4.77996332 C22.5133893,4.77468598 23.9093615,5.34695126 24.9408137,6.37090197 C25.9722659,7.39485269 26.5547053,8.78661063 26.56,10.24 C26.56,10.36 26.56,10.49 26.56,10.61 C26.56,13.6475661 24.0975661,16.11 21.06,16.11 C18.0224339,16.11 15.56,13.6475661 15.56,10.61 C15.466854,9.15918965 15.9540196,7.73082284 16.9142696,6.63928868 C17.8745195,5.54775452 19.2291495,4.8825179 20.68,4.79 L21.06,4.77996332 Z M21.06,13.32 C22.21,13.32 22.65,12.26 22.65,10.58 C22.65,8.9 22.21,7.84 21.06,7.84 C19.91,7.84 19.47,8.89 19.47,10.61 C19.47,12.33 19.91,13.32 21.06,13.32 Z" id="Shape"></path>
                <path d="M26.6,5 L30.41,5 L31.6,9.86 C31.87,10.97 32.13,12.12 32.4,13.31 L32.49,13.31 C32.76,12.12 33.02,10.97 33.29,9.86 L34.48,5 L38.11,5 L34.6,16.1 L30.26,16.1 L26.6,5 Z" id="Path"></path>
                <path d="M43.54,4.78 C46.81,4.78 48.3600001,7.17 48.3600001,10.13 C48.3600001,10.6337488 48.3098502,11.1362463 48.21,11.63 L41.9,11.63 C42.1326837,12.830364 43.2570416,13.6441016 44.47,13.49 C45.2677608,13.4693206 46.0464906,13.2419039 46.73,12.83 L48,15.09 C46.8180108,15.8934957 45.4288741,16.3380195 44,16.37 C41.0067266,16.5464139 38.4370332,14.2632368 38.26,11.27 C38.26,11.05 38.26,10.83 38.26,10.61 C38.166854,9.15918965 38.6540196,7.73082284 39.6142696,6.63928868 C40.5745195,5.54775452 41.9291495,4.8825179 43.38,4.79 L43.54,4.78 Z M45.13,9.34 C45.2164488,8.97246686 45.1518835,8.5856166 44.9507627,8.2660788 C44.7496418,7.946541 44.4287693,7.72101352 44.06,7.64 C43.9081514,7.6098236 43.7518486,7.6098236 43.6,7.64 C42.6524559,7.62841455 41.8678338,8.37314064 41.83,9.32 L45.1,9.32 L45.13,9.34 Z" id="Shape"></path>
                <path d="M49.78,5 L52.88,5 L53.15,6.33 L53.24,6.33 C54.1481655,5.35476329 55.4080643,4.78240924 56.74,4.74 C59.17,4.74 60.19,6.51 60.19,9.25 L60.19,16.1 L56.37,16.1 L56.37,9.78 C56.37,8.36 56,8 55.26,8 C54.6056496,8.02689227 53.994124,8.33265508 53.58,8.84 L53.58,16.1 L49.78,16.1 L49.78,5 Z" id="Path"></path>
                <path d="M62.78,12.48 C63.5378921,13.1326569 64.4831641,13.5282708 65.48,13.61 C66.28,13.61 66.59,13.39 66.59,12.95 C66.59,12.51 65.59,12.11 64.47,11.67 C63.19,11.16 61.68,10.21 61.68,8.4 C61.68,6.23 63.45,4.82 66.06,4.82 C67.5426795,4.83271734 68.9773192,5.34735468 70.13,6.28 L68.45,8.49 C67.8004901,7.97923643 67.0138813,7.67294627 66.19,7.61 C65.55,7.61 65.19,7.79 65.19,8.23 C65.19,8.67 66.19,9.03 67.27,9.42 C68.6,9.91 70.1,10.75 70.1,12.74 C70.1,14.73 68.46,16.41 65.37,16.41 C63.8118075,16.361367 62.3094341,15.8185515 61.08,14.86 L62.78,12.48 Z" id="Path"></path>
                <polygon id="Path" points="71.32 0.7 75 0.7 75 8.89 75.09 8.89 78.18 5 82.3 5 78.36 9.61 82.52 16.07 78.4 16.07 76.19 12.13 75 13.41 75 16.07 71.32 16.07"></polygon>
                <path d="M87,4.77999085 C88.4533871,4.77734541 89.8483015,5.35215658 90.8778768,6.37798109 C91.907452,7.40380561 92.4873503,8.79661289 92.49,10.25 C92.49,10.37 92.49,10.49 92.49,10.61 C92.49,13.6475661 90.0275661,16.11 86.99,16.11 C83.9524339,16.11 81.49,13.6475661 81.49,10.61 C81.396854,9.15918965 81.8840196,7.73082284 82.8442696,6.63928868 C83.8045195,5.54775452 85.1591495,4.8825179 86.61,4.79 L87,4.77999085 Z M87,13.32 C88.15,13.32 88.61,12.25 88.61,10.61 C88.61,8.97 88.16,7.87 87,7.87 C85.84,7.87 85.38,8.87 85.38,10.61 C85.38,12.35 85.84,13.32 87,13.32 Z" id="Shape"></path>
                <rect id="Rectangle" x="95.52" y="13.35" width="2.87" height="2.87"></rect>
                <rect id="Rectangle" x="114.75" y="0" width="2.87" height="2.87"></rect>
                <rect id="Rectangle" x="134.49" y="0" width="2.87" height="2.87"></rect>
            </g>
        </g>
    </g>
</svg>