<?xml version="1.0" encoding="UTF-8" standalone="no"?>
<svg
   xmlns:dc="http://purl.org/dc/elements/1.1/"
   xmlns:cc="http://creativecommons.org/ns#"
   xmlns:rdf="http://www.w3.org/1999/02/22-rdf-syntax-ns#"
   xmlns:svg="http://www.w3.org/2000/svg"
   xmlns="http://www.w3.org/2000/svg"
   xmlns:sodipodi="http://sodipodi.sourceforge.net/DTD/sodipodi-0.dtd"
   xmlns:inkscape="http://www.inkscape.org/namespaces/inkscape"
   width="334.27701"
   height="28.358"
   version="1.1"
   id="svg45"
   sodipodi:docname="temp_logo.svg"
   inkscape:version="0.92.1 r15371">
  <metadata
     id="metadata51">
    <rdf:RDF>
      <cc:Work
         rdf:about="">
        <dc:format>image/svg+xml</dc:format>
        <dc:type
           rdf:resource="http://purl.org/dc/dcmitype/StillImage" />
        <dc:title></dc:title>
      </cc:Work>
    </rdf:RDF>
  </metadata>
  <defs
     id="defs49" />
  <sodipodi:namedview
     pagecolor="#ffffff"
     bordercolor="#666666"
     borderopacity="1"
     objecttolerance="10"
     gridtolerance="10"
     guidetolerance="10"
     inkscape:pageopacity="0"
     inkscape:pageshadow="2"
     inkscape:window-width="1920"
     inkscape:window-height="1001"
     id="namedview47"
     showgrid="false"
     inkscape:zoom="1.8626374"
     inkscape:cx="200.31901"
     inkscape:cy="-74.612612"
     inkscape:window-x="-9"
     inkscape:window-y="-9"
     inkscape:window-maximized="1"
     inkscape:current-layer="text55"
     fit-margin-top="0"
     fit-margin-left="0"
     fit-margin-right="0"
     fit-margin-bottom="0" />
  <style
     type="text/css"
     id="style2">.st0{fill:#111111;}
    .st1{fill:#CC3333;}
    .st2{fill:#3A67E8;}
    .st3{fill:#AFB1B4;}</style>
  <g
     id="g7"
     transform="translate(-29.222999,-1.9)">
    <title
       id="title4">background</title>
    <rect
       id="canvas_background"
       height="33"
       width="366"
       y="-1"
       x="-1"
       style="fill:none" />
  </g>
  <g
     inkscape:groupmode="layer"
     id="layer3"
     inkscape:label="Layer 2"
     style="display:none"
     transform="translate(-29.222999,-1.9)">
    <g
       id="svg_22">
      <path
         inkscape:connector-curvature="0"
         id="svg_23"
         d="m 8.8,9 c 3.7,0 5.8,2.7 5.8,6.9 0,0.5 0,1 -0.1,1.4 H 4.6 c 0.2,3.2 2.1,5.1 4.9,5.1 1.4,0 2.6,-0.5 3.6,-1.1 l 0.9,1.6 c -1.3,0.8 -2.8,1.5 -4.8,1.5 -3.9,0 -7,-2.9 -7,-7.6 C 2.2,12.1 5.5,9 8.8,9 Z m 3.7,6.6 c 0,-3 -1.3,-4.6 -3.6,-4.6 -2,0 -3.9,1.7 -4.2,4.6 z"
         class="st3"
         style="fill:#afb1b4" />
      <path
         inkscape:connector-curvature="0"
         id="svg_24"
         d="m 17.5,2.6 h 2.4 V 17.1 H 20 l 6.2,-7.7 h 2.7 l -4.9,5.9 5.6,8.8 h -2.7 l -4.3,-7 -2.7,3.2 v 3.9 h -2.4 z"
         class="st3"
         style="fill:#afb1b4" />
      <path
         inkscape:connector-curvature="0"
         id="svg_25"
         d="m 36.7,9 c 3.6,0 6.8,2.8 6.8,7.7 0,4.8 -3.2,7.6 -6.8,7.6 -3.6,0 -6.8,-2.8 -6.8,-7.6 0,-4.9 3.2,-7.7 6.8,-7.7 z m 0,13.3 c 2.5,0 4.2,-2.3 4.2,-5.6 0,-3.4 -1.7,-5.7 -4.2,-5.7 -2.5,0 -4.2,2.3 -4.2,5.7 0,3.4 1.7,5.6 4.2,5.6 z"
         class="st3"
         style="fill:#afb1b4" />
      <path
         inkscape:connector-curvature="0"
         id="svg_26"
         d="m 46,20.7 c 1.3,1 2.6,1.7 4.3,1.7 1.9,0 2.9,-1 2.9,-2.3 0,-1.5 -1.7,-2.2 -3.3,-2.8 -2.1,-0.8 -4.4,-1.7 -4.4,-4.2 0,-2.3 1.9,-4.2 5,-4.2 1.8,0 3.4,0.8 4.5,1.7 l -1.2,1.6 c -1,-0.8 -2,-1.3 -3.3,-1.3 -1.8,0 -2.7,1 -2.7,2.1 0,1.4 1.6,1.9 3.2,2.5 2.1,0.8 4.5,1.7 4.5,4.4 0,2.4 -1.9,4.4 -5.4,4.4 -2.1,0 -4.1,-0.9 -5.4,-2 z"
         class="st3"
         style="fill:#afb1b4" />
      <path
         inkscape:connector-curvature="0"
         id="svg_27"
         d="m 58.3,28.2 c 1.7,0 2.7,-1.3 3.3,-3.1 L 61.9,24 56,9.3 h 2.6 l 3,8.1 c 0.5,1.3 1,2.8 1.4,4.1 h 0.1 c 0.4,-1.3 0.8,-2.8 1.2,-4.1 l 2.6,-8.1 h 2.4 l -5.5,15.8 c -1,2.9 -2.5,5.1 -5.5,5.1 -0.7,0 -1.2,-0.1 -1.7,-0.3 l 0.5,-2 c 0.3,0.2 0.8,0.3 1.2,0.3 z"
         class="st3"
         style="fill:#afb1b4" />
      <path
         inkscape:connector-curvature="0"
         id="svg_28"
         d="m 70.9,20.7 c 1.3,1 2.6,1.7 4.3,1.7 1.9,0 2.9,-1 2.9,-2.3 0,-1.5 -1.7,-2.2 -3.3,-2.8 -2.1,-0.8 -4.4,-1.7 -4.4,-4.2 0,-2.3 1.9,-4.2 5,-4.2 1.8,0 3.4,0.8 4.5,1.7 l -1.2,1.6 c -1,-0.8 -2,-1.3 -3.3,-1.3 -1.8,0 -2.7,1 -2.7,2.1 0,1.4 1.6,1.9 3.2,2.5 2.1,0.8 4.5,1.7 4.5,4.4 0,2.4 -1.9,4.4 -5.4,4.4 -2.1,0 -4.1,-0.9 -5.4,-2 z"
         class="st3"
         style="fill:#afb1b4" />
      <path
         inkscape:connector-curvature="0"
         id="svg_29"
         d="M 83.4,11.4 H 81.2 V 9.5 l 2.3,-0.2 0.3,-4.1 h 2.1 v 4.1 h 3.9 v 2 h -3.9 v 8.1 c 0,1.8 0.6,2.8 2.3,2.8 0.5,0 1.2,-0.2 1.7,-0.4 l 0.5,1.9 c -0.8,0.3 -1.8,0.5 -2.7,0.5 -3.1,0 -4.2,-2 -4.2,-4.9 v -7.9 z"
         class="st3"
         style="fill:#afb1b4" />
      <path
         inkscape:connector-curvature="0"
         id="svg_30"
         d="m 97.4,9 c 3.7,0 5.8,2.7 5.8,6.9 0,0.5 0,1 -0.1,1.4 h -9.9 c 0.2,3.2 2.1,5.1 4.9,5.1 1.4,0 2.6,-0.5 3.6,-1.1 l 0.9,1.6 c -1.3,0.8 -2.8,1.5 -4.8,1.5 -3.9,0 -7,-2.9 -7,-7.6 0,-4.7 3.3,-7.8 6.6,-7.8 z m 3.7,6.6 c 0,-3 -1.3,-4.6 -3.6,-4.6 -2,0 -3.9,1.7 -4.2,4.6 z M 97.4,6.8 h -1.9 l 2.7,-4.2 h 2.6 z"
         class="st3"
         style="fill:#afb1b4" />
      <path
         inkscape:connector-curvature="0"
         id="svg_31"
         d="m 106.1,9.4 h 2 l 0.2,2.1 h 0.1 c 1.3,-1.4 2.8,-2.5 4.5,-2.5 2.2,0 3.4,1.1 4,2.8 1.5,-1.7 3,-2.8 4.8,-2.8 3,0 4.5,2 4.5,5.7 V 24 h -2.5 v -8.9 c 0,-2.7 -0.9,-3.9 -2.7,-3.9 -1.1,0 -2.3,0.8 -3.7,2.3 V 24 h -2.5 v -8.9 c 0,-2.7 -0.9,-3.9 -2.7,-3.9 -1.1,0 -2.3,0.8 -3.7,2.3 V 24 h -2.5 V 9.4 Z"
         class="st3"
         style="fill:#afb1b4" />
    </g>
  </g>
  <g
     id="g43"
     transform="translate(-29.222999,-1.9)">
    <title
       id="title9">Layer 1</title>
    <g
       id="svg_1">
      <path
         id="svg_2"
         d="m 274.9,21 v -9.9 h 3 v -3 h 9 v -6 h 3.9 V 24 h -12.9 v -3 z m 3.9,-0.9 h 8.1 V 12 h -8.1 z"
         class="st0"
         inkscape:connector-curvature="0"
         style="fill:#111111" />
      <path
         id="svg_3"
         d="M 298.4,8.1 V 24 h -3.9 V 8.1 Z"
         class="st0"
         inkscape:connector-curvature="0"
         style="fill:#111111" />
      <path
         id="svg_4"
         d="M 314,26.1 V 24 h -9 v -3 h -3 v -9.9 h 3 v -3 h 12.9 V 30 h -13 v -3.9 z m -8.2,-6 h 8.1 V 12 h -8.1 z"
         class="st0"
         inkscape:connector-curvature="0"
         style="fill:#111111" />
      <path
         id="svg_5"
         d="M 325.4,8.1 V 24 h -3.9 V 8.1 Z"
         class="st0"
         inkscape:connector-curvature="0"
         style="fill:#111111" />
      <path
         id="svg_6"
         d="M 332,24 V 12 h -3 V 8.1 h 3 v -6 h 3.9 v 6 h 3 V 12 h -3 v 12 z"
         class="st0"
         inkscape:connector-curvature="0"
         style="fill:#111111" />
      <path
         id="svg_7"
         d="m 343.1,24 v -3 h -3 v -3.9 h 3 v -3 h 9 V 12 h -9.3 V 8.1 H 353 v 3 h 3 V 21 h -3 v 3 z m 0.9,-3.9 h 8.1 V 18 H 344 Z"
         class="st0"
         inkscape:connector-curvature="0"
         style="fill:#111111" />
      <path
         id="svg_8"
         d="M 363.5,2.1 V 24 h -3.9 V 2.1 Z"
         class="st0"
         inkscape:connector-curvature="0"
         style="fill:#111111" />
    </g>
    <g
       id="svg_9">
      <path
         id="svg_10"
         d="m 140.7,18.9 c 1.4,1 2.6,1.5 3.7,1.5 1.1,0 1.5,-0.3 1.5,-0.9 0,-0.8 -1.4,-1.1 -2.9,-1.7 -1.7,-0.7 -3.8,-2 -3.8,-4.5 0,-2.9 2.4,-4.9 6,-4.9 2.5,0 4.2,1 5.5,2 l -2.3,3.1 c -1.1,-0.8 -2.1,-1.3 -3.1,-1.3 -0.9,0 -1.3,0.2 -1.3,0.8 0,0.8 1.3,1.1 2.8,1.6 1.8,0.7 3.9,1.8 3.9,4.5 0,2.8 -2.2,5 -6.4,5 -1.9,0 -4.3,-0.8 -5.8,-2.1 z"
         class="st1"
         inkscape:connector-curvature="0"
         style="fill:#cc3333" />
      <path
         id="svg_11"
         d="m 152.3,2.9 h 5.2 v 15.8 c 0,1 0.5,1.3 0.8,1.3 0.2,0 0.3,0 0.5,-0.1 l 0.6,3.8 c -0.5,0.2 -1.4,0.4 -2.5,0.4 -3.5,0 -4.6,-2.3 -4.6,-5.7 z"
         class="st1"
         inkscape:connector-curvature="0"
         style="fill:#cc3333" />
      <path
         id="svg_12"
         d="m 167.1,8.4 c 3.9,0 7.5,2.9 7.5,7.9 0,5 -3.6,7.9 -7.5,7.9 -3.9,0 -7.5,-2.9 -7.5,-7.9 0,-5 3.6,-7.9 7.5,-7.9 z m 0,11.6 c 1.6,0 2.2,-1.4 2.2,-3.7 0,-2.3 -0.6,-3.7 -2.2,-3.7 -1.6,0 -2.2,1.4 -2.2,3.7 0,2.3 0.6,3.7 2.2,3.7 z"
         class="st1"
         inkscape:connector-curvature="0"
         style="fill:#cc3333" />
      <path
         id="svg_13"
         d="m 174.9,8.8 h 5.2 l 1.6,6.6 c 0.4,1.5 0.7,3.1 1.1,4.7 h 0.1 c 0.4,-1.6 0.7,-3.2 1.1,-4.7 l 1.6,-6.6 h 4.9 l -4.8,15 h -6 z"
         class="st1"
         inkscape:connector-curvature="0"
         style="fill:#cc3333" />
      <path
         id="svg_14"
         d="m 198.2,8.4 c 4.5,0 6.6,3.2 6.6,7.3 0,0.9 -0.1,1.7 -0.2,2 H 196 c 0.5,1.9 1.8,2.5 3.5,2.5 1,0 2,-0.3 3.1,-0.9 l 1.7,3.1 c -1.6,1.1 -3.8,1.7 -5.5,1.7 -4.4,0 -7.8,-2.9 -7.8,-7.9 0,-4.8 3.6,-7.8 7.2,-7.8 z m 2.2,6.2 c 0,-1.3 -0.5,-2.3 -2,-2.3 -1.1,0 -2.1,0.6 -2.4,2.3 z"
         class="st1"
         inkscape:connector-curvature="0"
         style="fill:#cc3333" />
      <path
         id="svg_15"
         d="m 206.6,8.8 h 4.2 l 0.4,1.8 h 0.1 c 1.2,-1.1 2.7,-2.2 4.8,-2.2 3.3,0 4.7,2.4 4.7,6.1 v 9.3 h -5.2 v -8.6 c 0,-1.9 -0.5,-2.4 -1.5,-2.4 -1,0 -1.5,0.4 -2.3,1.1 v 9.9 h -5.2 z"
         class="st1"
         inkscape:connector-curvature="0"
         style="fill:#cc3333" />
      <path
         id="svg_16"
         d="m 224.3,18.9 c 1.4,1 2.6,1.5 3.7,1.5 1.1,0 1.5,-0.3 1.5,-0.9 0,-0.8 -1.4,-1.1 -2.9,-1.7 -1.7,-0.7 -3.8,-2 -3.8,-4.5 0,-2.9 2.4,-4.9 6,-4.9 2.5,0 4.2,1 5.5,2 l -2.3,3.1 c -1.1,-0.8 -2.1,-1.3 -3.1,-1.3 -0.9,0 -1.3,0.2 -1.3,0.8 0,0.8 1.3,1.1 2.8,1.6 1.8,0.7 3.9,1.8 3.9,4.5 0,2.8 -2.2,5 -6.4,5 -1.9,0 -4.3,-0.8 -5.8,-2.1 z"
         class="st1"
         inkscape:connector-curvature="0"
         style="fill:#cc3333" />
      <path
         id="svg_17"
         d="M 235.9,2.9 H 241 V 14 h 0.1 l 4.2,-5.2 h 5.6 l -5.4,6.3 5.7,8.8 h -5.6 l -3,-5.4 -1.6,1.7 v 3.6 h -5.1 z"
         class="st1"
         inkscape:connector-curvature="0"
         style="fill:#cc3333" />
      <path
         id="svg_18"
         d="m 257.6,8.4 c 3.9,0 7.5,2.9 7.5,7.9 0,5 -3.6,7.9 -7.5,7.9 -3.9,0 -7.5,-2.9 -7.5,-7.9 0,-5 3.6,-7.9 7.5,-7.9 z m 0,11.6 c 1.6,0 2.2,-1.4 2.2,-3.7 0,-2.3 -0.6,-3.7 -2.2,-3.7 -1.6,0 -2.2,1.4 -2.2,3.7 0,2.3 0.6,3.7 2.2,3.7 z"
         class="st1"
         inkscape:connector-curvature="0"
         style="fill:#cc3333" />
    </g>
    <rect
       id="svg_19"
       height="3.9000001"
       width="3.9000001"
       class="st2"
       y="20.1"
       x="268.29999"
       style="fill:#3a67e8" />
    <rect
       id="svg_20"
       height="3.9000001"
       width="3.9000001"
       class="st2"
       y="1.9"
       x="294.5"
       style="fill:#3a67e8" />
    <rect
       id="svg_21"
       height="3.9000001"
       width="3.9000001"
       class="st2"
       y="1.9"
       x="321.29999"
       style="fill:#3a67e8" />
    <g
       inkscape:groupmode="layer"
       id="layer2"
       inkscape:label="Layer 1"
       style="opacity:1">
      <g
         aria-label="redflags"
         style="font-style:normal;font-variant:normal;font-weight:bold;font-stretch:normal;font-size:30px;line-height:1.25;font-family:'Source Sans Pro';-inkscape-font-specification:'Source Sans Pro Bold';letter-spacing:-1.09000003px;word-spacing:0px;fill:#afb1b4;fill-opacity:1;stroke:none;stroke-width:0.76992321"
         id="text55">
        <path
           d="M 29.222999,23.927999 V 9.0479995 h 3.6 l 0.3,2.6099995 h 0.12 q 0.81,-1.53 1.95,-2.2499995 1.14,-0.72 2.28,-0.72 0.63,0 1.02,0.09 0.42,0.06 0.75,0.21 l -0.72,3.8099995 q -0.42,-0.12 -0.78,-0.18 -0.36,-0.06 -0.84,-0.06 -0.84,0 -1.77,0.6 -0.9,0.6 -1.5,2.13 v 8.64 z"
           style="font-style:normal;font-variant:normal;font-weight:bold;font-stretch:normal;font-size:30px;font-family:'Source Sans Pro';-inkscape-font-specification:'Source Sans Pro Bold';letter-spacing:-1.09000003px;fill:#afb1b4;fill-opacity:1;stroke-width:0.76992321"
           id="path209"
           inkscape:connector-curvature="0" />
        <path
           d="m 46.453155,24.287999 q -1.59,0 -2.97,-0.51 -1.38,-0.54 -2.4,-1.53 -1.02,-1.02 -1.59,-2.46 -0.57,-1.44 -0.57,-3.3 0,-1.8 0.6,-3.24 0.6,-1.47 1.56,-2.46 0.99,-1.0199995 2.25,-1.5599995 1.26,-0.54 2.61,-0.54 1.59,0 2.76,0.54 1.2,0.54 1.98,1.4999995 0.81,0.96 1.2,2.28 0.39,1.29 0.39,2.82 0,0.6 -0.06,1.14 -0.06,0.54 -0.12,0.81 h -8.91 q 0.3,1.62 1.32,2.4 1.05,0.75 2.55,0.75 1.59,0 3.21,-0.99 l 1.47,2.67 q -1.14,0.78 -2.55,1.23 -1.38,0.45 -2.73,0.45 z m -3.3,-9.42 h 5.37 q 0,-1.26 -0.57,-2.04 -0.57,-0.78 -1.92,-0.78 -1.05,0 -1.86,0.69 -0.78,0.69 -1.02,2.13 z"
           style="font-style:normal;font-variant:normal;font-weight:bold;font-stretch:normal;font-size:30px;font-family:'Source Sans Pro';-inkscape-font-specification:'Source Sans Pro Bold';letter-spacing:-1.09000003px;fill:#afb1b4;fill-opacity:1;stroke-width:0.76992321"
           id="path211"
           inkscape:connector-curvature="0" />
        <path
           d="m 59.540499,24.287999 q -1.38,0 -2.52,-0.54 -1.11,-0.54 -1.92,-1.53 -0.78,-1.02 -1.23,-2.46 -0.42,-1.44 -0.42,-3.27 0,-1.83 0.51,-3.27 0.54,-1.44 1.38,-2.43 0.87,-1.0199995 1.98,-1.5599995 1.14,-0.54 2.31,-0.54 1.26,0 2.07,0.42 0.81,0.42 1.59,1.1399995 l -0.18,-2.2799995 v -5.07 h 4.41 V 23.927999 h -3.6 l -0.3,-1.47 h -0.12 q -0.78,0.78 -1.83,1.32 -1.05,0.51 -2.13,0.51 z m 1.14,-3.6 q 0.72,0 1.29,-0.3 0.6,-0.3 1.14,-1.05 v -6.09 q -0.6,-0.54 -1.23,-0.75 -0.63,-0.21 -1.23,-0.21 -1.05,0 -1.86,1.02 -0.81,0.99 -0.81,3.12 0,2.22 0.69,3.24 0.72,1.02 2.01,1.02 z"
           style="font-style:normal;font-variant:normal;font-weight:bold;font-stretch:normal;font-size:30px;font-family:'Source Sans Pro';-inkscape-font-specification:'Source Sans Pro Bold';letter-spacing:-1.09000003px;fill:#afb1b4;fill-opacity:1;stroke-width:0.76992321"
           id="path213"
           inkscape:connector-curvature="0" />
        <path
           d="m 71.058467,23.927999 v -11.43 h -1.98 V 9.2279995 l 1.98,-0.15 v -0.81 q 0,-1.17 0.27,-2.22 0.3,-1.05 0.96,-1.83 0.66,-0.78 1.71,-1.23 1.05,-0.45 2.55,-0.45 0.93,0 1.68,0.18 0.78,0.18 1.29,0.36 l -0.81,3.24 q -0.84,-0.3 -1.53,-0.3 -0.81,0 -1.26,0.51 -0.45,0.48 -0.45,1.62 v 0.9 h 2.67 v 3.4499995 h -2.67 v 11.43 z"
           style="font-style:normal;font-variant:normal;font-weight:bold;font-stretch:normal;font-size:30px;font-family:'Source Sans Pro';-inkscape-font-specification:'Source Sans Pro Bold';letter-spacing:-1.09000003px;fill:#afb1b4;fill-opacity:1;stroke-width:0.76992321"
           id="path215"
           inkscape:connector-curvature="0" />
        <path
           d="m 83.821999,24.287999 q -1.14,0 -1.92,-0.36 -0.78,-0.36 -1.26,-0.99 -0.45,-0.66 -0.66,-1.56 -0.21,-0.93 -0.21,-2.07 V 2.8979995 h 4.41 V 19.487999 q 0,0.69 0.24,0.96 0.27,0.27 0.54,0.27 0.15,0 0.24,0 0.12,0 0.3,-0.06 l 0.54,3.27 q -0.36,0.15 -0.93,0.24 -0.54,0.12 -1.29,0.12 z"
           style="font-style:normal;font-variant:normal;font-weight:bold;font-stretch:normal;font-size:30px;font-family:'Source Sans Pro';-inkscape-font-specification:'Source Sans Pro Bold';letter-spacing:-1.09000003px;fill:#afb1b4;fill-opacity:1;stroke-width:0.76992321"
           id="path217"
           inkscape:connector-curvature="0" />
        <path
           d="m 90.986999,24.287999 q -1.02,0 -1.86,-0.36 -0.81,-0.33 -1.38,-0.93 -0.57,-0.63 -0.9,-1.44 -0.3,-0.81 -0.3,-1.77 0,-2.34 1.98,-3.66 1.98,-1.32 6.39,-1.77 -0.06,-0.99 -0.6,-1.56 -0.51,-0.6 -1.74,-0.6 -0.96,0 -1.92,0.36 -0.93,0.36 -2.01,0.99 l -1.59,-2.91 q 1.44,-0.8699995 3,-1.4099995 1.59,-0.54 3.36,-0.54 2.88,0 4.38,1.6499995 1.53,1.62 1.53,5.07 v 8.52 h -3.6 l -0.3,-1.53 h -0.12 q -0.96,0.84 -2.01,1.38 -1.05,0.51 -2.31,0.51 z m 1.5,-3.42 q 0.75,0 1.29,-0.33 0.54,-0.33 1.14,-0.93 v -2.61 q -2.34,0.33 -3.24,0.96 -0.9,0.63 -0.9,1.5 0,0.72 0.45,1.08 0.48,0.33 1.26,0.33 z"
           style="font-style:normal;font-variant:normal;font-weight:bold;font-stretch:normal;font-size:30px;font-family:'Source Sans Pro';-inkscape-font-specification:'Source Sans Pro Bold';letter-spacing:-1.09000003px;fill:#afb1b4;fill-opacity:1;stroke-width:0.76992321"
           id="path219"
           inkscape:connector-curvature="0" />
        <path
           d="m 106.97737,30.257999 q -1.32,0 -2.46,-0.24 -1.11,-0.21 -1.98,-0.66 -0.84,-0.45 -1.32,-1.17 -0.48,-0.72 -0.48,-1.71 0,-1.8 2.13,-3 v -0.12 q -0.6,-0.39 -0.99,-0.99 -0.39,-0.6 -0.39,-1.53 0,-0.81 0.48,-1.53 0.48,-0.75 1.2,-1.26 v -0.12 q -0.78,-0.54 -1.41,-1.53 -0.6,-1.02 -0.6,-2.34 0,-1.35 0.51,-2.34 0.51,-1.02 1.35,-1.68 0.87,-0.6899995 1.98,-1.0199995 1.11,-0.33 2.31,-0.33 1.32,0 2.31,0.36 h 5.43 v 3.2099995 h -2.37 q 0.21,0.33 0.33,0.84 0.15,0.51 0.15,1.11 0,1.29 -0.45,2.25 -0.45,0.93 -1.26,1.56 -0.78,0.6 -1.86,0.9 -1.05,0.3 -2.28,0.3 -0.87,0 -1.8,-0.3 -0.3,0.24 -0.42,0.48 -0.12,0.24 -0.12,0.63 0,0.57 0.48,0.84 0.51,0.27 1.77,0.27 h 2.4 q 2.76,0 4.2,0.9 1.47,0.87 1.47,2.88 0,1.17 -0.6,2.13 -0.57,0.99 -1.65,1.68 -1.08,0.72 -2.61,1.11 -1.53,0.42 -3.45,0.42 z m 0.33,-13.71 q 0.87,0 1.44,-0.6 0.6,-0.63 0.6,-1.89 0,-1.17 -0.6,-1.77 -0.57,-0.63 -1.44,-0.63 -0.87,0 -1.47,0.6 -0.57,0.6 -0.57,1.8 0,1.26 0.57,1.89 0.6,0.6 1.47,0.6 z m 0.36,10.95 q 1.5,0 2.46,-0.54 0.96,-0.51 0.96,-1.29 0,-0.69 -0.6,-0.93 -0.57,-0.24 -1.68,-0.24 h -1.53 q -0.78,0 -1.26,-0.06 -0.48,-0.03 -0.84,-0.12 -0.81,0.72 -0.81,1.47 0,0.84 0.9,1.26 0.9,0.45 2.4,0.45 z"
           style="font-style:normal;font-variant:normal;font-weight:bold;font-stretch:normal;font-size:30px;font-family:'Source Sans Pro';-inkscape-font-specification:'Source Sans Pro Bold';letter-spacing:-1.09000003px;fill:#afb1b4;fill-opacity:1;stroke-width:0.76992321"
           id="path221"
           inkscape:connector-curvature="0" />
        <path
           d="m 120.95347,24.287999 q -1.47,0 -3.03,-0.57 -1.53,-0.57 -2.67,-1.5 l 1.98,-2.76 q 1.02,0.78 1.95,1.17 0.93,0.39 1.89,0.39 0.99,0 1.44,-0.33 0.45,-0.33 0.45,-0.93 0,-0.36 -0.27,-0.63 -0.24,-0.3 -0.69,-0.54 -0.42,-0.24 -0.96,-0.42 -0.54,-0.21 -1.11,-0.45 -0.69,-0.27 -1.38,-0.63 -0.69,-0.36 -1.26,-0.87 -0.57,-0.54 -0.93,-1.23 -0.36,-0.72 -0.36,-1.65 0,-1.02 0.39,-1.89 0.42,-0.87 1.17,-1.4699995 0.75,-0.6 1.8,-0.93 1.05,-0.36 2.34,-0.36 1.71,0 3,0.6 1.29,0.57 2.25,1.2899995 l -1.98,2.64 q -0.81,-0.6 -1.59,-0.93 -0.78,-0.33 -1.56,-0.33 -1.68,0 -1.68,1.17 0,0.36 0.24,0.63 0.24,0.24 0.63,0.45 0.42,0.21 0.93,0.42 0.54,0.18 1.11,0.39 0.72,0.27 1.41,0.63 0.72,0.33 1.29,0.84 0.6,0.51 0.96,1.26 0.36,0.72 0.36,1.74 0,1.02 -0.39,1.89 -0.39,0.87 -1.17,1.53 -0.78,0.63 -1.92,1.02 -1.14,0.36 -2.64,0.36 z"
           style="font-style:normal;font-variant:normal;font-weight:bold;font-stretch:normal;font-size:30px;font-family:'Source Sans Pro';-inkscape-font-specification:'Source Sans Pro Bold';letter-spacing:-1.09000003px;fill:#afb1b4;fill-opacity:1;stroke-width:0.76992321"
           id="path223"
           inkscape:connector-curvature="0" />
      </g>
    </g>
    <rect
       id="svg_32"
       height="3.9000001"
       width="3.9000001"
       class="st2"
       y="20.1"
       x="130.89999"
       style="fill:#3a67e8" />
  </g>
</svg>
