<?xml version="1.0" encoding="UTF-8" standalone="no"?>
<!-- Created with Inkscape (http://www.inkscape.org/) -->

<svg
   xmlns:dc="http://purl.org/dc/elements/1.1/"
   xmlns:cc="http://creativecommons.org/ns#"
   xmlns:rdf="http://www.w3.org/1999/02/22-rdf-syntax-ns#"
   xmlns:svg="http://www.w3.org/2000/svg"
   xmlns="http://www.w3.org/2000/svg"
   xmlns:sodipodi="http://sodipodi.sourceforge.net/DTD/sodipodi-0.dtd"
   xmlns:inkscape="http://www.inkscape.org/namespaces/inkscape"
   width="1200"
   height="630"
   viewBox="0 0 317.49999 166.6875"
   version="1.1"
   id="svg8"
   inkscape:version="0.92.1 r15371"
   sodipodi:docname="temp_fb_share.svg"
   inkscape:export-filename="C:\Users\eronisko\Ubuntu\workplace\slovensko-digital\redflags.slovensko.digital\app\assets\images\temp_fb_share.png"
   inkscape:export-xdpi="96"
   inkscape:export-ydpi="96">
  <defs
     id="defs2" />
  <sodipodi:namedview
     id="base"
     pagecolor="#ffffff"
     bordercolor="#666666"
     borderopacity="1.0"
     inkscape:pageopacity="0"
     inkscape:pageshadow="2"
     inkscape:zoom="0.49497475"
     inkscape:cx="464.08439"
     inkscape:cy="285.10803"
     inkscape:document-units="mm"
     inkscape:current-layer="layer4"
     showgrid="false"
     units="px"
     inkscape:window-width="1920"
     inkscape:window-height="1001"
     inkscape:window-x="-9"
     inkscape:window-y="-9"
     inkscape:window-maximized="1"
     inkscape:snap-page="true"
     inkscape:pagecheckerboard="false" />
  <metadata
     id="metadata5">
    <rdf:RDF>
      <cc:Work
         rdf:about="">
        <dc:format>image/svg+xml</dc:format>
        <dc:type
           rdf:resource="http://purl.org/dc/dcmitype/StillImage" />
        <dc:title></dc:title>
      </cc:Work>
    </rdf:RDF>
  </metadata>
  <g
     inkscape:groupmode="layer"
     id="layer4"
     inkscape:label="Background"
     style="display:inline">
    <rect
       style="fill:#ffffff;fill-opacity:1;stroke:none;stroke-width:0.87314469;stroke-miterlimit:4;stroke-dasharray:none;stroke-opacity:1"
       id="rect6061"
       width="317.5"
       height="166.6875"
       x="0"
       y="-2.8421709e-014" />
  </g>
  <g
     inkscape:label="Layer 1"
     inkscape:groupmode="layer"
     id="layer1"
     transform="translate(0,-130.31248)"
     style="display:inline">
    <rect
       style="fill:#000000;fill-opacity:1;stroke:none;stroke-width:0.8013643;stroke-miterlimit:4;stroke-dasharray:none;stroke-opacity:1"
       id="rect5954"
       width="317.49011"
       height="72.939499"
       x="0.0049496209"
       y="224.05553" />
    <text
       xml:space="preserve"
       style="font-style:normal;font-variant:normal;font-weight:300;font-stretch:normal;font-size:19.75555611px;line-height:1.25;font-family:Merriweather;-inkscape-font-specification:'Merriweather Light';letter-spacing:0px;word-spacing:0px;fill:#ffffff;fill-opacity:1;stroke:none;stroke-width:0.55565268"
       x="15.749888"
       y="255.14906"
       id="text4487"><tspan
         sodipodi:role="line"
         id="tspan4485"
         x="15.749888"
         y="255.14906"
         style="font-style:normal;font-variant:normal;font-weight:300;font-stretch:normal;font-size:19.75555611px;font-family:Merriweather;-inkscape-font-specification:'Merriweather Light';fill:#ffffff;fill-opacity:1;stroke-width:0.55565268">Štátne IT projekty</tspan></text>
    <text
       xml:space="preserve"
       style="font-style:normal;font-variant:normal;font-weight:300;font-stretch:normal;font-size:19.75555611px;line-height:1.25;font-family:Merriweather;-inkscape-font-specification:'Merriweather Light';letter-spacing:0px;word-spacing:0px;fill:#ffffff;fill-opacity:1;stroke:none;stroke-width:0.55565268"
       x="16.285952"
       y="283.30087"
       id="text4487-2"><tspan
         sodipodi:role="line"
         id="tspan4485-9"
         x="16.285952"
         y="283.30087"
         style="font-style:normal;font-variant:normal;font-weight:300;font-stretch:normal;font-size:19.75555611px;font-family:Merriweather;-inkscape-font-specification:'Merriweather Light';fill:#ffffff;fill-opacity:1;stroke-width:0.55565268">hodnotené odborníkmi</tspan></text>
    <flowRoot
       xml:space="preserve"
       id="flowRoot4511"
       style="font-style:normal;font-variant:normal;font-weight:normal;font-stretch:normal;font-size:40px;line-height:1.25;font-family:FontAwesome;-inkscape-font-specification:FontAwesome;letter-spacing:0px;word-spacing:0px;fill:#000000;fill-opacity:1;stroke:none"
       transform="matrix(0.26458333,0,0,0.26458333,0,130.31248)"><flowRegion
         id="flowRegion4513"><rect
           id="rect4515"
           width="645.71429"
           height="150"
           x="281.42856"
           y="82.85714" /></flowRegion><flowPara
         id="flowPara4517"></flowPara></flowRoot>    <flowRoot
       xml:space="preserve"
       id="flowRoot4519"
       style="font-style:normal;font-variant:normal;font-weight:normal;font-stretch:normal;font-size:40px;line-height:1.25;font-family:FontAwesome;-inkscape-font-specification:FontAwesome;letter-spacing:0px;word-spacing:0px;fill:#000000;fill-opacity:1;stroke:none"
       transform="matrix(0.26458333,0,0,0.26458333,0,130.31248)"><flowRegion
         id="flowRegion4521"><rect
           id="rect4523"
           width="531.42859"
           height="284.28571"
           x="32.857143"
           y="-55.714287" /></flowRegion><flowPara
         id="flowPara4525"></flowPara></flowRoot>    <g
       id="g5688"
       transform="matrix(0.60156077,0,0,0.60156077,-25.810471,88.070118)">
      <path
         style="fill:#ffac33;fill-opacity:1;stroke-width:3.06081915"
         id="path4527"
         d="m 103.86193,189.73329 q 0,0.52636 -0.62122,1.14759 l -8.6805,8.46614 2.05687,11.95565 q 0.0231,0.1689 0.0231,0.47777 0,0.50207 -0.25103,0.84797 -0.25103,0.3459 -0.72881,0.3459 -0.45349,0 -0.9544,-0.28806 l -10.73726,-5.64413 -10.73736,5.64413 q -0.52637,0.28806 -0.9544,0.28806 -0.50208,0 -0.75311,-0.3459 -0.25103,-0.3459 -0.25103,-0.84797 0,-0.14344 0.0463,-0.47777 l 2.05688,-11.95565 -8.70503,-8.46614 q -0.59693,-0.64552 -0.59693,-1.14759 0,-0.88498 1.34055,-1.099 l 12.00458,-1.74464 5.38095,-10.88117 q 0.45349,-0.97985 1.17223,-0.97985 0.71956,0 1.17235,0.97985 l 5.38095,10.88117 12.00446,1.74464 q 1.34067,0.21402 1.34067,1.099 z"
         inkscape:connector-curvature="0" />
      <path
         style="fill:#868e96;fill-opacity:1;stroke-width:3.06081939"
         id="path5095"
         d="m 221.5955,198.26711 7.31843,-7.10118 -10.09162,-1.48146 -4.52084,-9.1334 -4.52084,9.1334 -10.0915,1.48146 7.31843,7.10118 -1.74464,10.06698 9.03855,-4.75961 9.01414,4.75961 z m 12.60139,-8.53671 q 0,0.52636 -0.62122,1.14759 l -8.6805,8.46625 2.05686,11.95554 q 0.0231,0.1689 0.0231,0.47778 0,1.19675 -0.97985,1.19675 -0.45348,0 -0.95439,-0.28806 l -10.73738,-5.64413 -10.73737,5.64413 q -0.52637,0.28806 -0.9544,0.28806 -0.50207,0 -0.7531,-0.3459 -0.25104,-0.34589 -0.25104,-0.84796 0,-0.14346 0.0463,-0.47778 l 2.05687,-11.95565 -8.70491,-8.46613 q -0.59694,-0.64553 -0.59694,-1.1476 0,-0.88499 1.34066,-1.099 l 12.00458,-1.74464 5.38084,-10.88117 q 0.45348,-0.97985 1.17234,-0.97985 0.71956,0 1.17224,0.97985 l 5.38095,10.88117 12.00458,1.74464 q 1.34055,0.21401 1.34055,1.099 z"
         inkscape:connector-curvature="0" />
      <path
         style="fill:#ffac33;fill-opacity:1;stroke-width:3.06081939"
         id="path4527-8"
         d="m 147.30691,189.73329 q 0,0.52636 -0.62122,1.14759 l -8.6805,8.46614 2.05687,11.95565 q 0.0231,0.1689 0.0231,0.47777 0,0.50207 -0.25103,0.84797 -0.25103,0.3459 -0.72881,0.3459 -0.45349,0 -0.9544,-0.28806 l -10.73726,-5.64413 -10.73736,5.64413 q -0.52637,0.28806 -0.9544,0.28806 -0.50208,0 -0.75311,-0.3459 -0.25103,-0.3459 -0.25103,-0.84797 0,-0.14344 0.0463,-0.47777 l 2.05688,-11.95565 -8.70504,-8.46614 q -0.59693,-0.64552 -0.59693,-1.14759 0,-0.88498 1.34055,-1.099 l 12.00459,-1.74464 5.38095,-10.88117 q 0.45349,-0.97985 1.17223,-0.97985 0.71956,0 1.17235,0.97985 l 5.38095,10.88117 12.00446,1.74464 q 1.34067,0.21402 1.34067,1.099 z"
         inkscape:connector-curvature="0" />
      <path
         style="fill:#ffac33;fill-opacity:1;stroke-width:3.06081939"
         id="path4527-2"
         d="m 190.75188,189.73329 q 0,0.52636 -0.62122,1.14759 l -8.6805,8.46614 2.05687,11.95565 q 0.0231,0.1689 0.0231,0.47777 0,0.50207 -0.25103,0.84797 -0.25103,0.3459 -0.72881,0.3459 -0.45349,0 -0.9544,-0.28806 l -10.73726,-5.64413 -10.73736,5.64413 q -0.52637,0.28806 -0.9544,0.28806 -0.50208,0 -0.75311,-0.3459 -0.25103,-0.3459 -0.25103,-0.84797 0,-0.14344 0.0463,-0.47777 l 2.05688,-11.95565 -8.70503,-8.46614 q -0.59693,-0.64552 -0.59693,-1.14759 0,-0.88498 1.34055,-1.099 l 12.00458,-1.74464 5.38095,-10.88117 q 0.45349,-0.97985 1.17223,-0.97985 0.71956,0 1.17235,0.97985 l 5.38095,10.88117 12.00446,1.74464 q 1.34067,0.21402 1.34067,1.099 z"
         inkscape:connector-curvature="0" />
    </g>
    <g
       id="g6058"
       transform="matrix(0.49208859,0,0,0.49208859,142.53447,139.87305)">
      <g
         transform="translate(-29.222999,-1.9)"
         id="g7">
        <title
           id="title4">background</title>
        <rect
           style="fill:none"
           x="-1"
           y="-1"
           width="366"
           height="33"
           id="canvas_background" />
      </g>
      <g
         transform="translate(-29.222999,-1.9)"
         style="display:none"
         inkscape:label="Layer 2"
         id="layer3">
        <g
           id="svg_22">
          <path
             style="fill:#afb1b4"
             class="st3"
             d="m 8.8,9 c 3.7,0 5.8,2.7 5.8,6.9 0,0.5 0,1 -0.1,1.4 H 4.6 c 0.2,3.2 2.1,5.1 4.9,5.1 1.4,0 2.6,-0.5 3.6,-1.1 l 0.9,1.6 c -1.3,0.8 -2.8,1.5 -4.8,1.5 -3.9,0 -7,-2.9 -7,-7.6 C 2.2,12.1 5.5,9 8.8,9 Z m 3.7,6.6 c 0,-3 -1.3,-4.6 -3.6,-4.6 -2,0 -3.9,1.7 -4.2,4.6 z"
             id="svg_23"
             inkscape:connector-curvature="0" />
          <path
             style="fill:#afb1b4"
             class="st3"
             d="m 17.5,2.6 h 2.4 V 17.1 H 20 l 6.2,-7.7 h 2.7 l -4.9,5.9 5.6,8.8 h -2.7 l -4.3,-7 -2.7,3.2 v 3.9 h -2.4 z"
             id="svg_24"
             inkscape:connector-curvature="0" />
          <path
             style="fill:#afb1b4"
             class="st3"
             d="m 36.7,9 c 3.6,0 6.8,2.8 6.8,7.7 0,4.8 -3.2,7.6 -6.8,7.6 -3.6,0 -6.8,-2.8 -6.8,-7.6 0,-4.9 3.2,-7.7 6.8,-7.7 z m 0,13.3 c 2.5,0 4.2,-2.3 4.2,-5.6 0,-3.4 -1.7,-5.7 -4.2,-5.7 -2.5,0 -4.2,2.3 -4.2,5.7 0,3.4 1.7,5.6 4.2,5.6 z"
             id="svg_25"
             inkscape:connector-curvature="0" />
          <path
             style="fill:#afb1b4"
             class="st3"
             d="m 46,20.7 c 1.3,1 2.6,1.7 4.3,1.7 1.9,0 2.9,-1 2.9,-2.3 0,-1.5 -1.7,-2.2 -3.3,-2.8 -2.1,-0.8 -4.4,-1.7 -4.4,-4.2 0,-2.3 1.9,-4.2 5,-4.2 1.8,0 3.4,0.8 4.5,1.7 l -1.2,1.6 c -1,-0.8 -2,-1.3 -3.3,-1.3 -1.8,0 -2.7,1 -2.7,2.1 0,1.4 1.6,1.9 3.2,2.5 2.1,0.8 4.5,1.7 4.5,4.4 0,2.4 -1.9,4.4 -5.4,4.4 -2.1,0 -4.1,-0.9 -5.4,-2 z"
             id="svg_26"
             inkscape:connector-curvature="0" />
          <path
             style="fill:#afb1b4"
             class="st3"
             d="m 58.3,28.2 c 1.7,0 2.7,-1.3 3.3,-3.1 L 61.9,24 56,9.3 h 2.6 l 3,8.1 c 0.5,1.3 1,2.8 1.4,4.1 h 0.1 c 0.4,-1.3 0.8,-2.8 1.2,-4.1 l 2.6,-8.1 h 2.4 l -5.5,15.8 c -1,2.9 -2.5,5.1 -5.5,5.1 -0.7,0 -1.2,-0.1 -1.7,-0.3 l 0.5,-2 c 0.3,0.2 0.8,0.3 1.2,0.3 z"
             id="svg_27"
             inkscape:connector-curvature="0" />
          <path
             style="fill:#afb1b4"
             class="st3"
             d="m 70.9,20.7 c 1.3,1 2.6,1.7 4.3,1.7 1.9,0 2.9,-1 2.9,-2.3 0,-1.5 -1.7,-2.2 -3.3,-2.8 -2.1,-0.8 -4.4,-1.7 -4.4,-4.2 0,-2.3 1.9,-4.2 5,-4.2 1.8,0 3.4,0.8 4.5,1.7 l -1.2,1.6 c -1,-0.8 -2,-1.3 -3.3,-1.3 -1.8,0 -2.7,1 -2.7,2.1 0,1.4 1.6,1.9 3.2,2.5 2.1,0.8 4.5,1.7 4.5,4.4 0,2.4 -1.9,4.4 -5.4,4.4 -2.1,0 -4.1,-0.9 -5.4,-2 z"
             id="svg_28"
             inkscape:connector-curvature="0" />
          <path
             style="fill:#afb1b4"
             class="st3"
             d="M 83.4,11.4 H 81.2 V 9.5 l 2.3,-0.2 0.3,-4.1 h 2.1 v 4.1 h 3.9 v 2 h -3.9 v 8.1 c 0,1.8 0.6,2.8 2.3,2.8 0.5,0 1.2,-0.2 1.7,-0.4 l 0.5,1.9 c -0.8,0.3 -1.8,0.5 -2.7,0.5 -3.1,0 -4.2,-2 -4.2,-4.9 v -7.9 z"
             id="svg_29"
             inkscape:connector-curvature="0" />
          <path
             style="fill:#afb1b4"
             class="st3"
             d="m 97.4,9 c 3.7,0 5.8,2.7 5.8,6.9 0,0.5 0,1 -0.1,1.4 h -9.9 c 0.2,3.2 2.1,5.1 4.9,5.1 1.4,0 2.6,-0.5 3.6,-1.1 l 0.9,1.6 c -1.3,0.8 -2.8,1.5 -4.8,1.5 -3.9,0 -7,-2.9 -7,-7.6 0,-4.7 3.3,-7.8 6.6,-7.8 z m 3.7,6.6 c 0,-3 -1.3,-4.6 -3.6,-4.6 -2,0 -3.9,1.7 -4.2,4.6 z M 97.4,6.8 h -1.9 l 2.7,-4.2 h 2.6 z"
             id="svg_30"
             inkscape:connector-curvature="0" />
          <path
             style="fill:#afb1b4"
             class="st3"
             d="m 106.1,9.4 h 2 l 0.2,2.1 h 0.1 c 1.3,-1.4 2.8,-2.5 4.5,-2.5 2.2,0 3.4,1.1 4,2.8 1.5,-1.7 3,-2.8 4.8,-2.8 3,0 4.5,2 4.5,5.7 V 24 h -2.5 v -8.9 c 0,-2.7 -0.9,-3.9 -2.7,-3.9 -1.1,0 -2.3,0.8 -3.7,2.3 V 24 h -2.5 v -8.9 c 0,-2.7 -0.9,-3.9 -2.7,-3.9 -1.1,0 -2.3,0.8 -3.7,2.3 V 24 h -2.5 V 9.4 Z"
             id="svg_31"
             inkscape:connector-curvature="0" />
        </g>
      </g>
      <g
         transform="translate(-29.222999,-1.9)"
         id="g43">
        <title
           id="title9">Layer 1</title>
        <g
           id="svg_1">
          <path
             style="fill:#111111"
             inkscape:connector-curvature="0"
             class="st0"
             d="m 274.9,21 v -9.9 h 3 v -3 h 9 v -6 h 3.9 V 24 h -12.9 v -3 z m 3.9,-0.9 h 8.1 V 12 h -8.1 z"
             id="svg_2" />
          <path
             style="fill:#111111"
             inkscape:connector-curvature="0"
             class="st0"
             d="M 298.4,8.1 V 24 h -3.9 V 8.1 Z"
             id="svg_3" />
          <path
             style="fill:#111111"
             inkscape:connector-curvature="0"
             class="st0"
             d="M 314,26.1 V 24 h -9 v -3 h -3 v -9.9 h 3 v -3 h 12.9 V 30 h -13 v -3.9 z m -8.2,-6 h 8.1 V 12 h -8.1 z"
             id="svg_4" />
          <path
             style="fill:#111111"
             inkscape:connector-curvature="0"
             class="st0"
             d="M 325.4,8.1 V 24 h -3.9 V 8.1 Z"
             id="svg_5" />
          <path
             style="fill:#111111"
             inkscape:connector-curvature="0"
             class="st0"
             d="M 332,24 V 12 h -3 V 8.1 h 3 v -6 h 3.9 v 6 h 3 V 12 h -3 v 12 z"
             id="svg_6" />
          <path
             style="fill:#111111"
             inkscape:connector-curvature="0"
             class="st0"
             d="m 343.1,24 v -3 h -3 v -3.9 h 3 v -3 h 9 V 12 h -9.3 V 8.1 H 353 v 3 h 3 V 21 h -3 v 3 z m 0.9,-3.9 h 8.1 V 18 H 344 Z"
             id="svg_7" />
          <path
             style="fill:#111111"
             inkscape:connector-curvature="0"
             class="st0"
             d="M 363.5,2.1 V 24 h -3.9 V 2.1 Z"
             id="svg_8" />
        </g>
        <g
           id="svg_9">
          <path
             style="fill:#cc3333"
             inkscape:connector-curvature="0"
             class="st1"
             d="m 140.7,18.9 c 1.4,1 2.6,1.5 3.7,1.5 1.1,0 1.5,-0.3 1.5,-0.9 0,-0.8 -1.4,-1.1 -2.9,-1.7 -1.7,-0.7 -3.8,-2 -3.8,-4.5 0,-2.9 2.4,-4.9 6,-4.9 2.5,0 4.2,1 5.5,2 l -2.3,3.1 c -1.1,-0.8 -2.1,-1.3 -3.1,-1.3 -0.9,0 -1.3,0.2 -1.3,0.8 0,0.8 1.3,1.1 2.8,1.6 1.8,0.7 3.9,1.8 3.9,4.5 0,2.8 -2.2,5 -6.4,5 -1.9,0 -4.3,-0.8 -5.8,-2.1 z"
             id="svg_10" />
          <path
             style="fill:#cc3333"
             inkscape:connector-curvature="0"
             class="st1"
             d="m 152.3,2.9 h 5.2 v 15.8 c 0,1 0.5,1.3 0.8,1.3 0.2,0 0.3,0 0.5,-0.1 l 0.6,3.8 c -0.5,0.2 -1.4,0.4 -2.5,0.4 -3.5,0 -4.6,-2.3 -4.6,-5.7 z"
             id="svg_11" />
          <path
             style="fill:#cc3333"
             inkscape:connector-curvature="0"
             class="st1"
             d="m 167.1,8.4 c 3.9,0 7.5,2.9 7.5,7.9 0,5 -3.6,7.9 -7.5,7.9 -3.9,0 -7.5,-2.9 -7.5,-7.9 0,-5 3.6,-7.9 7.5,-7.9 z m 0,11.6 c 1.6,0 2.2,-1.4 2.2,-3.7 0,-2.3 -0.6,-3.7 -2.2,-3.7 -1.6,0 -2.2,1.4 -2.2,3.7 0,2.3 0.6,3.7 2.2,3.7 z"
             id="svg_12" />
          <path
             style="fill:#cc3333"
             inkscape:connector-curvature="0"
             class="st1"
             d="m 174.9,8.8 h 5.2 l 1.6,6.6 c 0.4,1.5 0.7,3.1 1.1,4.7 h 0.1 c 0.4,-1.6 0.7,-3.2 1.1,-4.7 l 1.6,-6.6 h 4.9 l -4.8,15 h -6 z"
             id="svg_13" />
          <path
             style="fill:#cc3333"
             inkscape:connector-curvature="0"
             class="st1"
             d="m 198.2,8.4 c 4.5,0 6.6,3.2 6.6,7.3 0,0.9 -0.1,1.7 -0.2,2 H 196 c 0.5,1.9 1.8,2.5 3.5,2.5 1,0 2,-0.3 3.1,-0.9 l 1.7,3.1 c -1.6,1.1 -3.8,1.7 -5.5,1.7 -4.4,0 -7.8,-2.9 -7.8,-7.9 0,-4.8 3.6,-7.8 7.2,-7.8 z m 2.2,6.2 c 0,-1.3 -0.5,-2.3 -2,-2.3 -1.1,0 -2.1,0.6 -2.4,2.3 z"
             id="svg_14" />
          <path
             style="fill:#cc3333"
             inkscape:connector-curvature="0"
             class="st1"
             d="m 206.6,8.8 h 4.2 l 0.4,1.8 h 0.1 c 1.2,-1.1 2.7,-2.2 4.8,-2.2 3.3,0 4.7,2.4 4.7,6.1 v 9.3 h -5.2 v -8.6 c 0,-1.9 -0.5,-2.4 -1.5,-2.4 -1,0 -1.5,0.4 -2.3,1.1 v 9.9 h -5.2 z"
             id="svg_15" />
          <path
             style="fill:#cc3333"
             inkscape:connector-curvature="0"
             class="st1"
             d="m 224.3,18.9 c 1.4,1 2.6,1.5 3.7,1.5 1.1,0 1.5,-0.3 1.5,-0.9 0,-0.8 -1.4,-1.1 -2.9,-1.7 -1.7,-0.7 -3.8,-2 -3.8,-4.5 0,-2.9 2.4,-4.9 6,-4.9 2.5,0 4.2,1 5.5,2 l -2.3,3.1 c -1.1,-0.8 -2.1,-1.3 -3.1,-1.3 -0.9,0 -1.3,0.2 -1.3,0.8 0,0.8 1.3,1.1 2.8,1.6 1.8,0.7 3.9,1.8 3.9,4.5 0,2.8 -2.2,5 -6.4,5 -1.9,0 -4.3,-0.8 -5.8,-2.1 z"
             id="svg_16" />
          <path
             style="fill:#cc3333"
             inkscape:connector-curvature="0"
             class="st1"
             d="M 235.9,2.9 H 241 V 14 h 0.1 l 4.2,-5.2 h 5.6 l -5.4,6.3 5.7,8.8 h -5.6 l -3,-5.4 -1.6,1.7 v 3.6 h -5.1 z"
             id="svg_17" />
          <path
             style="fill:#cc3333"
             inkscape:connector-curvature="0"
             class="st1"
             d="m 257.6,8.4 c 3.9,0 7.5,2.9 7.5,7.9 0,5 -3.6,7.9 -7.5,7.9 -3.9,0 -7.5,-2.9 -7.5,-7.9 0,-5 3.6,-7.9 7.5,-7.9 z m 0,11.6 c 1.6,0 2.2,-1.4 2.2,-3.7 0,-2.3 -0.6,-3.7 -2.2,-3.7 -1.6,0 -2.2,1.4 -2.2,3.7 0,2.3 0.6,3.7 2.2,3.7 z"
             id="svg_18" />
        </g>
        <rect
           style="fill:#3a67e8"
           x="268.29999"
           y="20.1"
           class="st2"
           width="3.9000001"
           height="3.9000001"
           id="svg_19" />
        <rect
           style="fill:#3a67e8"
           x="294.5"
           y="1.9"
           class="st2"
           width="3.9000001"
           height="3.9000001"
           id="svg_20" />
        <rect
           style="fill:#3a67e8"
           x="321.29999"
           y="1.9"
           class="st2"
           width="3.9000001"
           height="3.9000001"
           id="svg_21" />
        <g
           style="opacity:1"
           inkscape:label="Layer 1"
           id="layer2"
           inkscape:groupmode="layer">
          <g
             id="text55"
             style="font-style:normal;font-variant:normal;font-weight:bold;font-stretch:normal;font-size:30px;line-height:1.25;font-family:'Source Sans Pro';-inkscape-font-specification:'Source Sans Pro Bold';letter-spacing:-1.09000003px;word-spacing:0px;fill:#afb1b4;fill-opacity:1;stroke:none;stroke-width:0.76992321"
             aria-label="redflags">
            <path
               inkscape:connector-curvature="0"
               id="path209"
               style="font-style:normal;font-variant:normal;font-weight:bold;font-stretch:normal;font-size:30px;font-family:'Source Sans Pro';-inkscape-font-specification:'Source Sans Pro Bold';letter-spacing:-1.09000003px;fill:#afb1b4;fill-opacity:1;stroke-width:0.76992321"
               d="M 29.222999,23.927999 V 9.0479995 h 3.6 l 0.3,2.6099995 h 0.12 q 0.81,-1.53 1.95,-2.2499995 1.14,-0.72 2.28,-0.72 0.63,0 1.02,0.09 0.42,0.06 0.75,0.21 l -0.72,3.8099995 q -0.42,-0.12 -0.78,-0.18 -0.36,-0.06 -0.84,-0.06 -0.84,0 -1.77,0.6 -0.9,0.6 -1.5,2.13 v 8.64 z" />
            <path
               inkscape:connector-curvature="0"
               id="path211"
               style="font-style:normal;font-variant:normal;font-weight:bold;font-stretch:normal;font-size:30px;font-family:'Source Sans Pro';-inkscape-font-specification:'Source Sans Pro Bold';letter-spacing:-1.09000003px;fill:#afb1b4;fill-opacity:1;stroke-width:0.76992321"
               d="m 46.453155,24.287999 q -1.59,0 -2.97,-0.51 -1.38,-0.54 -2.4,-1.53 -1.02,-1.02 -1.59,-2.46 -0.57,-1.44 -0.57,-3.3 0,-1.8 0.6,-3.24 0.6,-1.47 1.56,-2.46 0.99,-1.0199995 2.25,-1.5599995 1.26,-0.54 2.61,-0.54 1.59,0 2.76,0.54 1.2,0.54 1.98,1.4999995 0.81,0.96 1.2,2.28 0.39,1.29 0.39,2.82 0,0.6 -0.06,1.14 -0.06,0.54 -0.12,0.81 h -8.91 q 0.3,1.62 1.32,2.4 1.05,0.75 2.55,0.75 1.59,0 3.21,-0.99 l 1.47,2.67 q -1.14,0.78 -2.55,1.23 -1.38,0.45 -2.73,0.45 z m -3.3,-9.42 h 5.37 q 0,-1.26 -0.57,-2.04 -0.57,-0.78 -1.92,-0.78 -1.05,0 -1.86,0.69 -0.78,0.69 -1.02,2.13 z" />
            <path
               inkscape:connector-curvature="0"
               id="path213"
               style="font-style:normal;font-variant:normal;font-weight:bold;font-stretch:normal;font-size:30px;font-family:'Source Sans Pro';-inkscape-font-specification:'Source Sans Pro Bold';letter-spacing:-1.09000003px;fill:#afb1b4;fill-opacity:1;stroke-width:0.76992321"
               d="m 59.540499,24.287999 q -1.38,0 -2.52,-0.54 -1.11,-0.54 -1.92,-1.53 -0.78,-1.02 -1.23,-2.46 -0.42,-1.44 -0.42,-3.27 0,-1.83 0.51,-3.27 0.54,-1.44 1.38,-2.43 0.87,-1.0199995 1.98,-1.5599995 1.14,-0.54 2.31,-0.54 1.26,0 2.07,0.42 0.81,0.42 1.59,1.1399995 l -0.18,-2.2799995 v -5.07 h 4.41 V 23.927999 h -3.6 l -0.3,-1.47 h -0.12 q -0.78,0.78 -1.83,1.32 -1.05,0.51 -2.13,0.51 z m 1.14,-3.6 q 0.72,0 1.29,-0.3 0.6,-0.3 1.14,-1.05 v -6.09 q -0.6,-0.54 -1.23,-0.75 -0.63,-0.21 -1.23,-0.21 -1.05,0 -1.86,1.02 -0.81,0.99 -0.81,3.12 0,2.22 0.69,3.24 0.72,1.02 2.01,1.02 z" />
            <path
               inkscape:connector-curvature="0"
               id="path215"
               style="font-style:normal;font-variant:normal;font-weight:bold;font-stretch:normal;font-size:30px;font-family:'Source Sans Pro';-inkscape-font-specification:'Source Sans Pro Bold';letter-spacing:-1.09000003px;fill:#afb1b4;fill-opacity:1;stroke-width:0.76992321"
               d="m 71.058467,23.927999 v -11.43 h -1.98 V 9.2279995 l 1.98,-0.15 v -0.81 q 0,-1.17 0.27,-2.22 0.3,-1.05 0.96,-1.83 0.66,-0.78 1.71,-1.23 1.05,-0.45 2.55,-0.45 0.93,0 1.68,0.18 0.78,0.18 1.29,0.36 l -0.81,3.24 q -0.84,-0.3 -1.53,-0.3 -0.81,0 -1.26,0.51 -0.45,0.48 -0.45,1.62 v 0.9 h 2.67 v 3.4499995 h -2.67 v 11.43 z" />
            <path
               inkscape:connector-curvature="0"
               id="path217"
               style="font-style:normal;font-variant:normal;font-weight:bold;font-stretch:normal;font-size:30px;font-family:'Source Sans Pro';-inkscape-font-specification:'Source Sans Pro Bold';letter-spacing:-1.09000003px;fill:#afb1b4;fill-opacity:1;stroke-width:0.76992321"
               d="m 83.821999,24.287999 q -1.14,0 -1.92,-0.36 -0.78,-0.36 -1.26,-0.99 -0.45,-0.66 -0.66,-1.56 -0.21,-0.93 -0.21,-2.07 V 2.8979995 h 4.41 V 19.487999 q 0,0.69 0.24,0.96 0.27,0.27 0.54,0.27 0.15,0 0.24,0 0.12,0 0.3,-0.06 l 0.54,3.27 q -0.36,0.15 -0.93,0.24 -0.54,0.12 -1.29,0.12 z" />
            <path
               inkscape:connector-curvature="0"
               id="path219"
               style="font-style:normal;font-variant:normal;font-weight:bold;font-stretch:normal;font-size:30px;font-family:'Source Sans Pro';-inkscape-font-specification:'Source Sans Pro Bold';letter-spacing:-1.09000003px;fill:#afb1b4;fill-opacity:1;stroke-width:0.76992321"
               d="m 90.986999,24.287999 q -1.02,0 -1.86,-0.36 -0.81,-0.33 -1.38,-0.93 -0.57,-0.63 -0.9,-1.44 -0.3,-0.81 -0.3,-1.77 0,-2.34 1.98,-3.66 1.98,-1.32 6.39,-1.77 -0.06,-0.99 -0.6,-1.56 -0.51,-0.6 -1.74,-0.6 -0.96,0 -1.92,0.36 -0.93,0.36 -2.01,0.99 l -1.59,-2.91 q 1.44,-0.8699995 3,-1.4099995 1.59,-0.54 3.36,-0.54 2.88,0 4.38,1.6499995 1.53,1.62 1.53,5.07 v 8.52 h -3.6 l -0.3,-1.53 h -0.12 q -0.96,0.84 -2.01,1.38 -1.05,0.51 -2.31,0.51 z m 1.5,-3.42 q 0.75,0 1.29,-0.33 0.54,-0.33 1.14,-0.93 v -2.61 q -2.34,0.33 -3.24,0.96 -0.9,0.63 -0.9,1.5 0,0.72 0.45,1.08 0.48,0.33 1.26,0.33 z" />
            <path
               inkscape:connector-curvature="0"
               id="path221"
               style="font-style:normal;font-variant:normal;font-weight:bold;font-stretch:normal;font-size:30px;font-family:'Source Sans Pro';-inkscape-font-specification:'Source Sans Pro Bold';letter-spacing:-1.09000003px;fill:#afb1b4;fill-opacity:1;stroke-width:0.76992321"
               d="m 106.97737,30.257999 q -1.32,0 -2.46,-0.24 -1.11,-0.21 -1.98,-0.66 -0.84,-0.45 -1.32,-1.17 -0.48,-0.72 -0.48,-1.71 0,-1.8 2.13,-3 v -0.12 q -0.6,-0.39 -0.99,-0.99 -0.39,-0.6 -0.39,-1.53 0,-0.81 0.48,-1.53 0.48,-0.75 1.2,-1.26 v -0.12 q -0.78,-0.54 -1.41,-1.53 -0.6,-1.02 -0.6,-2.34 0,-1.35 0.51,-2.34 0.51,-1.02 1.35,-1.68 0.87,-0.6899995 1.98,-1.0199995 1.11,-0.33 2.31,-0.33 1.32,0 2.31,0.36 h 5.43 v 3.2099995 h -2.37 q 0.21,0.33 0.33,0.84 0.15,0.51 0.15,1.11 0,1.29 -0.45,2.25 -0.45,0.93 -1.26,1.56 -0.78,0.6 -1.86,0.9 -1.05,0.3 -2.28,0.3 -0.87,0 -1.8,-0.3 -0.3,0.24 -0.42,0.48 -0.12,0.24 -0.12,0.63 0,0.57 0.48,0.84 0.51,0.27 1.77,0.27 h 2.4 q 2.76,0 4.2,0.9 1.47,0.87 1.47,2.88 0,1.17 -0.6,2.13 -0.57,0.99 -1.65,1.68 -1.08,0.72 -2.61,1.11 -1.53,0.42 -3.45,0.42 z m 0.33,-13.71 q 0.87,0 1.44,-0.6 0.6,-0.63 0.6,-1.89 0,-1.17 -0.6,-1.77 -0.57,-0.63 -1.44,-0.63 -0.87,0 -1.47,0.6 -0.57,0.6 -0.57,1.8 0,1.26 0.57,1.89 0.6,0.6 1.47,0.6 z m 0.36,10.95 q 1.5,0 2.46,-0.54 0.96,-0.51 0.96,-1.29 0,-0.69 -0.6,-0.93 -0.57,-0.24 -1.68,-0.24 h -1.53 q -0.78,0 -1.26,-0.06 -0.48,-0.03 -0.84,-0.12 -0.81,0.72 -0.81,1.47 0,0.84 0.9,1.26 0.9,0.45 2.4,0.45 z" />
            <path
               inkscape:connector-curvature="0"
               id="path223"
               style="font-style:normal;font-variant:normal;font-weight:bold;font-stretch:normal;font-size:30px;font-family:'Source Sans Pro';-inkscape-font-specification:'Source Sans Pro Bold';letter-spacing:-1.09000003px;fill:#afb1b4;fill-opacity:1;stroke-width:0.76992321"
               d="m 120.95347,24.287999 q -1.47,0 -3.03,-0.57 -1.53,-0.57 -2.67,-1.5 l 1.98,-2.76 q 1.02,0.78 1.95,1.17 0.93,0.39 1.89,0.39 0.99,0 1.44,-0.33 0.45,-0.33 0.45,-0.93 0,-0.36 -0.27,-0.63 -0.24,-0.3 -0.69,-0.54 -0.42,-0.24 -0.96,-0.42 -0.54,-0.21 -1.11,-0.45 -0.69,-0.27 -1.38,-0.63 -0.69,-0.36 -1.26,-0.87 -0.57,-0.54 -0.93,-1.23 -0.36,-0.72 -0.36,-1.65 0,-1.02 0.39,-1.89 0.42,-0.87 1.17,-1.4699995 0.75,-0.6 1.8,-0.93 1.05,-0.36 2.34,-0.36 1.71,0 3,0.6 1.29,0.57 2.25,1.2899995 l -1.98,2.64 q -0.81,-0.6 -1.59,-0.93 -0.78,-0.33 -1.56,-0.33 -1.68,0 -1.68,1.17 0,0.36 0.24,0.63 0.24,0.24 0.63,0.45 0.42,0.21 0.93,0.42 0.54,0.18 1.11,0.39 0.72,0.27 1.41,0.63 0.72,0.33 1.29,0.84 0.6,0.51 0.96,1.26 0.36,0.72 0.36,1.74 0,1.02 -0.39,1.89 -0.39,0.87 -1.17,1.53 -0.78,0.63 -1.92,1.02 -1.14,0.36 -2.64,0.36 z" />
          </g>
        </g>
        <rect
           style="fill:#3a67e8"
           x="130.89999"
           y="20.1"
           class="st2"
           width="3.9000001"
           height="3.9000001"
           id="svg_32" />
      </g>
    </g>
  </g>
  <style
     id="style2"
     type="text/css">.st0{fill:#111111;}
    .st1{fill:#CC3333;}
    .st2{fill:#3A67E8;}
    .st3{fill:#AFB1B4;}</style>
</svg>
